<svg width="133" height="153" viewBox="0 0 133 153" fill="none" xmlns="http://www.w3.org/2000/svg">
<g id="android app icon">
<path id="Rectangle 19" d="M0 54L133 16.5V124.5L0 99V54Z" fill="#FFA500"/>
<g id="Device">
<path id="Vector" d="M92.1152 153L40.2428 152.761C37.2472 152.744 34.3807 151.539 32.2727 149.408C30.1647 147.278 28.9877 144.398 29.0001 141.4L29.5505 11.2572C29.5567 9.77191 29.8552 8.30235 30.4291 6.93257C31.0031 5.56278 31.8411 4.31963 32.8954 3.27418C33.9496 2.22872 35.1994 1.40146 36.5733 0.839679C37.9472 0.2779 39.4182 -0.00737963 40.9023 0.000145066L92.7695 0.239215C95.765 0.254343 98.6322 1.45876 100.741 3.58795C102.85 5.71714 104.028 8.59701 104.017 11.5951L103.467 141.732C103.461 143.218 103.162 144.688 102.589 146.059C102.015 147.429 101.177 148.673 100.123 149.719C99.0686 150.765 97.8189 151.594 96.445 152.157C95.071 152.72 93.5998 153.006 92.1152 153Z" fill="#455A64"/>
<path id="Vector_2" d="M92.6916 4.71407H82.6381C82.31 4.72016 81.9864 4.79086 81.6857 4.92215C81.385 5.05343 81.113 5.24272 80.8854 5.47921C80.6578 5.7157 80.479 5.99475 80.3591 6.30042C80.2393 6.60609 80.1808 6.93239 80.187 7.26069V9.0849C80.1932 9.41295 80.1347 9.739 80.0148 10.0444C79.8949 10.3497 79.7159 10.6284 79.4883 10.8645C79.2606 11.1006 78.9886 11.2894 78.6879 11.4201C78.3872 11.5508 78.0637 11.6209 77.7359 11.6263L58.1378 11.538C57.4748 11.5203 56.8459 11.24 56.3892 10.7586C55.9326 10.2772 55.6855 9.63412 55.7023 8.97056V7.14635C55.719 6.48367 55.4727 5.84136 55.0171 5.36013C54.5616 4.87889 53.934 4.59799 53.272 4.57895H49.7356L40.9335 4.53737C38.8399 4.5249 36.8267 5.34319 35.3347 6.81308C33.8426 8.28297 32.9933 10.2847 32.9727 12.3799L32.4535 139.409C32.4487 140.449 32.6485 141.479 33.0415 142.441C33.4346 143.403 34.0131 144.279 34.7442 145.017C35.4752 145.755 36.3444 146.342 37.3021 146.745C38.2598 147.147 39.2873 147.356 40.326 147.361L92.0892 147.6C93.1285 147.605 94.1586 147.405 95.1206 147.011C96.0826 146.618 96.9577 146.038 97.696 145.306C98.4342 144.574 99.0212 143.703 99.4233 142.744C99.8254 141.785 100.035 140.756 100.04 139.716L100.559 12.6865C100.571 10.5854 99.7496 8.56531 98.2744 7.07032C96.7991 5.57533 94.791 4.72782 92.6916 4.71407Z" fill="white"/>
<path id="Vector_3" d="M85.728 130.652L47.2379 130.486C46.8381 130.486 46.5161 130.049 46.5213 129.519L46.5628 119.442C46.5628 118.922 46.89 118.475 47.2899 118.475L85.78 118.652C86.0015 118.69 86.1998 118.813 86.3333 118.994C86.4668 119.175 86.5253 119.401 86.4966 119.624L86.4602 129.691C86.4602 130.226 86.1279 130.657 85.728 130.652Z" fill="#FFA500"/>
<path id="Vector_4" d="M54.9154 42.0561L41.5593 41.9955L41.5482 44.4485L54.9043 44.5092L54.9154 42.0561Z" fill="#FFA500"/>
<path id="Vector_5" opacity="0.1" d="M54.9154 42.0561L41.5593 41.9955L41.5482 44.4485L54.9043 44.5092L54.9154 42.0561Z" fill="black"/>
<path id="Vector_6" d="M94.0675 57.1173C94.1724 57.1067 94.2754 57.0823 94.3739 57.0446C94.5176 56.9883 94.6426 56.8927 94.7345 56.7686C94.8263 56.6445 94.8813 56.4969 94.8932 56.343C94.8932 55.5166 94.8932 54.3109 94.8932 52.7621C94.8932 51.9877 94.8932 51.1198 94.8932 50.1635C94.8932 49.9296 94.8932 49.6854 94.8932 49.4411C94.927 49.2041 94.8755 48.9627 94.7478 48.7603C94.6763 48.6632 94.5833 48.584 94.4761 48.529C94.3689 48.474 94.2503 48.4447 94.1298 48.4432H93.3197H85.8159L42.3822 48.2821C42.271 48.2802 42.161 48.3052 42.0616 48.355C41.9621 48.4048 41.8761 48.4778 41.8109 48.568C41.6855 48.7713 41.6376 49.013 41.6759 49.2488C41.6759 49.7685 41.6759 50.2882 41.6759 50.808C41.6759 51.8474 41.6759 52.8868 41.6759 53.9263C41.6759 54.446 41.6759 54.9657 41.6759 55.4854C41.6544 55.7275 41.6544 55.971 41.6759 56.213C41.7032 56.3168 41.7539 56.4129 41.8241 56.494C41.8943 56.5751 41.9822 56.639 42.081 56.6808C42.1833 56.7215 42.2928 56.741 42.4029 56.7379H45.0461L56.5797 56.8003L76.1051 56.9198L89.2693 57.0238L92.8472 57.0654H93.7767C93.9896 57.0654 94.0935 57.0654 94.0935 57.0654H93.7767H92.8472H89.2693H76.1051L56.5797 57.003L45.0461 56.9562H42.4029C42.2575 56.9621 42.1124 56.9373 41.9771 56.8835C41.8404 56.8251 41.7188 56.7362 41.6216 56.6236C41.5244 56.511 41.4542 56.3777 41.4163 56.2338C41.3862 56.0974 41.3757 55.9574 41.3851 55.818V55.4335C41.3851 54.9137 41.3851 54.394 41.3851 53.8743C41.3851 52.8349 41.3851 51.7954 41.3851 50.756C41.3851 50.2363 41.3851 49.7166 41.3851 49.1968C41.3752 49.0584 41.3752 48.9195 41.3851 48.7811C41.4046 48.6282 41.4637 48.4831 41.5565 48.3601C41.6461 48.2346 41.7646 48.1327 41.9021 48.063C42.0395 47.9934 42.1918 47.958 42.3458 47.9599L85.7796 48.199L93.2834 48.251H94.0935C94.2362 48.2511 94.3768 48.2856 94.5034 48.3516C94.6299 48.4177 94.7387 48.5133 94.8205 48.6303C94.9669 48.8563 95.026 49.1279 94.9867 49.3943C94.9867 49.6386 94.9867 49.8829 94.9867 50.1167C94.9867 51.0626 94.9867 51.9306 94.9867 52.7153C94.9867 54.2745 94.9503 55.4698 94.9399 56.3014C94.9272 56.4613 94.8692 56.6142 94.7726 56.7422C94.676 56.8702 94.5449 56.9679 94.3947 57.0238C94.2964 57.0847 94.1831 57.1171 94.0675 57.1173Z" fill="#E0E0E0"/>
<path id="Vector_7" d="M69.9991 50.8906H45.5715V53.1826H69.9991V50.8906Z" fill="#FFA500"/>
<path id="Vector_8" opacity="0.2" d="M69.9991 50.8906H45.5715V53.1826H69.9991V50.8906Z" fill="white"/>
<path id="Vector_9" d="M54.8241 64.4344L41.468 64.3738L41.4569 66.8268L54.813 66.8875L54.8241 64.4344Z" fill="#FFA500"/>
<path id="Vector_10" opacity="0.1" d="M54.8241 64.4344L41.468 64.3738L41.4569 66.8268L54.813 66.8875L54.8241 64.4344Z" fill="black"/>
<path id="Vector_11" d="M93.7303 79.4963C93.8352 79.4833 93.9393 79.4643 94.0419 79.4391C94.1869 79.3929 94.3204 79.3161 94.4333 79.2139C94.5461 79.1117 94.6358 78.9864 94.6962 78.8466C94.778 78.6368 94.81 78.4108 94.7897 78.1866C94.7897 77.9371 94.7897 77.6668 94.7897 77.3654C94.7897 76.7625 94.7897 76.0765 94.7897 75.2865V71.9863C94.8145 71.7474 94.7617 71.5068 94.6391 71.3003C94.511 71.0885 94.3095 70.9313 94.0731 70.8585C93.8144 70.8124 93.551 70.7984 93.2889 70.817H85.8163L42.5331 70.6559C42.3003 70.6564 42.0756 70.7415 41.9008 70.8955C41.726 71.0494 41.613 71.2616 41.5828 71.4926C41.5828 71.9863 41.5828 72.532 41.5828 73.0518C41.5828 74.0912 41.5828 75.1306 41.5828 76.1701C41.5828 76.6898 41.5828 77.2095 41.5828 77.7292C41.5634 77.9721 41.5739 78.2165 41.6139 78.4568C41.6788 78.6676 41.8122 78.8505 41.993 78.9765C42.1848 79.0984 42.4102 79.1566 42.6369 79.1428H43.3588H44.8595L56.3515 79.2L75.8095 79.3195L88.9268 79.4235L92.4944 79.4651H88.9268H75.8095L56.3411 79.4443L44.8491 79.4027H42.5902C42.3093 79.4194 42.0306 79.3446 41.7957 79.1896C41.5594 79.0258 41.3869 78.7853 41.3076 78.5088C41.261 78.2447 41.2471 77.9759 41.266 77.7084C41.266 77.1887 41.266 76.669 41.266 76.1493C41.266 75.1098 41.266 74.0704 41.266 73.031C41.266 72.5112 41.266 71.9915 41.266 71.4718C41.3039 71.1746 41.4487 70.9015 41.6733 70.7034C41.898 70.5054 42.187 70.3961 42.4864 70.396L85.7695 70.6351L93.2422 70.6922C93.5204 70.6751 93.7997 70.6944 94.0731 70.7494C94.3429 70.8376 94.5704 71.0228 94.7118 71.2691C94.8461 71.498 94.9043 71.7637 94.878 72.0279C94.878 72.2722 94.878 72.5112 94.878 72.7503C94.878 73.691 94.878 74.5537 94.878 75.3489C94.878 76.1441 94.878 76.8145 94.878 77.4278C94.878 77.724 94.878 77.9995 94.878 78.2541C94.8968 78.4865 94.8594 78.7201 94.7689 78.935C94.7015 79.0784 94.604 79.2055 94.483 79.3078C94.362 79.41 94.2204 79.4849 94.0679 79.5274C93.9544 79.5368 93.8402 79.5263 93.7303 79.4963Z" fill="#E0E0E0"/>
<path id="Vector_12" d="M54.7228 87.784L41.3667 87.7234L41.3556 90.1764L54.7117 90.2371L54.7228 87.784Z" fill="#FFA500"/>
<path id="Vector_13" opacity="0.1" d="M54.7228 87.784L41.3667 87.7234L41.3556 90.1764L54.7117 90.2371L54.7228 87.784Z" fill="black"/>
<path id="Vector_14" d="M93.6262 102.837C93.7312 102.824 93.8352 102.805 93.9378 102.779C94.0822 102.733 94.2152 102.657 94.328 102.556C94.4408 102.455 94.5308 102.331 94.5921 102.192C94.6735 101.982 94.7055 101.756 94.6856 101.532C94.6856 101.277 94.6856 101.012 94.6856 100.706C94.6856 100.108 94.6856 99.4168 94.6856 98.6268V95.3266C94.7104 95.0877 94.6575 94.8471 94.535 94.6406C94.4038 94.4326 94.2033 94.2779 93.9689 94.204C93.7105 94.156 93.4471 94.1403 93.1848 94.1572H85.7122L42.429 93.9961C42.1962 93.9967 41.9715 94.0818 41.7967 94.2357C41.6219 94.3896 41.5089 94.6018 41.4787 94.8329C41.4787 95.3526 41.4787 95.8723 41.4787 96.392C41.4787 97.4315 41.4787 98.4709 41.4787 99.5103C41.4787 100.03 41.4787 100.55 41.4787 101.069C41.4593 101.311 41.4698 101.553 41.5098 101.792C41.572 102.004 41.7061 102.188 41.8889 102.312C42.0795 102.436 42.3058 102.495 42.5328 102.478H44.7918L56.2837 102.54L75.7417 102.66L88.8591 102.764L92.4266 102.805H88.8591H75.7417L56.2837 102.748L44.7918 102.701H42.5328C42.2517 102.72 41.9723 102.645 41.7383 102.488C41.502 102.324 41.3296 102.084 41.2502 101.807C41.2036 101.543 41.1897 101.275 41.2086 101.007C41.2086 100.487 41.2086 99.9677 41.2086 99.448C41.2086 98.4085 41.2086 97.3691 41.2086 96.3297C41.2086 95.8099 41.2086 95.2902 41.2086 94.7445C41.2453 94.4478 41.3891 94.1747 41.6129 93.9766C41.8366 93.7785 42.125 93.669 42.4238 93.6687L85.707 93.9078L93.1796 93.9649C93.4579 93.9479 93.7372 93.9671 94.0105 94.0221C94.2803 94.1103 94.5078 94.2955 94.6492 94.5418C94.7836 94.7707 94.8417 95.0364 94.8154 95.3006C94.8154 95.5449 94.8154 95.7891 94.8154 96.023C94.8154 96.9637 94.8154 97.8264 94.8154 98.6216C94.8154 99.4168 94.8154 100.087 94.8154 100.7C94.8154 100.997 94.8154 101.272 94.8154 101.527C94.8353 101.759 94.7979 101.993 94.7063 102.208C94.6389 102.351 94.5414 102.478 94.4204 102.58C94.2994 102.683 94.1578 102.758 94.0053 102.8C93.8835 102.842 93.7537 102.854 93.6262 102.837Z" fill="#E0E0E0"/>
<path id="Vector_15" d="M69.4772 73.9181L45.0498 73.8071L45.0394 76.0991L69.4668 76.21L69.4772 73.9181Z" fill="#FFA500"/>
<path id="Vector_16" opacity="0.2" d="M69.4772 73.9181L45.0498 73.8071L45.0394 76.0991L69.4668 76.21L69.4772 73.9181Z" fill="white"/>
<path id="Vector_17" d="M47.2582 98.5961C47.2429 98.8052 47.1666 99.0051 47.0388 99.1712C46.9109 99.3372 46.7372 99.4621 46.5392 99.5302C46.3411 99.5984 46.1274 99.6068 45.9246 99.5546C45.7217 99.5023 45.5387 99.3916 45.3982 99.2362C45.2576 99.0807 45.1658 98.8874 45.134 98.6802C45.1022 98.4731 45.1319 98.2611 45.2193 98.0706C45.3068 97.8802 45.4482 97.7196 45.626 97.6088C45.8039 97.4981 46.0102 97.442 46.2196 97.4475C46.5089 97.4637 46.7802 97.5933 46.9746 97.8083C47.1691 98.0233 47.271 98.3064 47.2582 98.5961Z" fill="#FFA500"/>
<path id="Vector_18" d="M50.5666 98.6117C50.5768 98.7583 50.5568 98.9053 50.5078 99.0437C50.4588 99.1822 50.3818 99.3091 50.2817 99.4165C50.1817 99.5239 50.0605 99.6095 49.926 99.6681C49.7914 99.7267 49.6462 99.7569 49.4994 99.7569C49.3527 99.7569 49.2075 99.7267 49.0729 99.6681C48.9383 99.6095 48.8172 99.5239 48.7171 99.4165C48.617 99.3091 48.5401 99.1822 48.4911 99.0437C48.4421 98.9053 48.4221 98.7583 48.4323 98.6117C48.4221 98.4652 48.4421 98.3182 48.4911 98.1797C48.5401 98.0413 48.617 97.9144 48.7171 97.807C48.8172 97.6996 48.9383 97.6139 49.0729 97.5553C49.2075 97.4968 49.3527 97.4666 49.4994 97.4666C49.6462 97.4666 49.7914 97.4968 49.926 97.5553C50.0605 97.6139 50.1817 97.6996 50.2817 97.807C50.3818 97.9144 50.4588 98.0413 50.5078 98.1797C50.5568 98.3182 50.5768 98.4652 50.5666 98.6117Z" fill="#FFA500"/>
<path id="Vector_19" d="M53.8795 98.6272C53.8642 98.8363 53.7879 99.0362 53.6601 99.2023C53.5323 99.3683 53.3586 99.4932 53.1605 99.5613C52.9624 99.6295 52.7487 99.638 52.5459 99.5857C52.3431 99.5334 52.16 99.4227 52.0195 99.2673C51.879 99.1119 51.7871 98.9186 51.7553 98.7114C51.7235 98.5042 51.7532 98.2922 51.8407 98.1018C51.9281 97.9113 52.0696 97.7507 52.2474 97.64C52.4252 97.5292 52.6316 97.4731 52.841 97.4786C53.1298 97.4961 53.4003 97.6261 53.5944 97.8408C53.7886 98.0556 53.8909 98.3379 53.8795 98.6272Z" fill="#FFA500"/>
<path id="Vector_20" d="M57.1869 98.6429C57.1716 98.8519 57.0953 99.0519 56.9675 99.2179C56.8396 99.384 56.6659 99.5088 56.4679 99.577C56.2698 99.6451 56.0561 99.6536 55.8533 99.6013C55.6504 99.549 55.4674 99.4383 55.3269 99.2829C55.1863 99.1275 55.0945 98.9342 55.0627 98.727C55.0309 98.5198 55.0606 98.3078 55.1481 98.1174C55.2355 97.9269 55.3769 97.7664 55.5548 97.6556C55.7326 97.5448 55.939 97.4887 56.1483 97.4943C56.4372 97.5117 56.7076 97.6417 56.9018 97.8565C57.096 98.0712 57.1983 98.3535 57.1869 98.6429Z" fill="#FFA500"/>
<path id="Vector_21" d="M60.4956 98.6529C60.4813 98.8623 60.4058 99.0628 60.2786 99.2296C60.1513 99.3964 59.9778 99.522 59.7798 99.591C59.5818 99.6599 59.3678 99.6691 59.1646 99.6173C58.9614 99.5656 58.7779 99.4552 58.6368 99.3C58.4958 99.1447 58.4035 98.9513 58.3713 98.744C58.3391 98.5366 58.3686 98.3243 58.456 98.1336C58.5434 97.9428 58.6848 97.782 58.8628 97.671C59.0408 97.5601 59.2474 97.5039 59.457 97.5095C59.7449 97.527 60.0146 97.6563 60.2087 97.8699C60.4027 98.0835 60.5056 98.3644 60.4956 98.6529Z" fill="#FFA500"/>
<path id="Vector_22" d="M63.8089 98.6685C63.7947 98.8768 63.72 99.0764 63.594 99.2427C63.4679 99.4091 63.296 99.5349 63.0994 99.6047C62.9029 99.6746 62.6902 99.6853 62.4875 99.6358C62.2849 99.5862 62.1012 99.4784 61.959 99.3256C61.8168 99.1729 61.7223 98.9819 61.6872 98.7761C61.652 98.5703 61.6778 98.3588 61.7612 98.1674C61.8447 97.9761 61.9822 97.8134 62.1569 97.6993C62.3316 97.5851 62.5357 97.5246 62.7443 97.5251C63.0368 97.536 63.3131 97.6624 63.5126 97.8767C63.7122 98.091 63.8187 98.3758 63.8089 98.6685Z" fill="#FFA500"/>
<path id="Vector_23" d="M67.1161 98.6842C67.1264 98.8307 67.1063 98.9778 67.0573 99.1162C67.0083 99.2547 66.9314 99.3816 66.8313 99.489C66.7312 99.5964 66.6101 99.6821 66.4755 99.7406C66.3409 99.7992 66.1957 99.8294 66.049 99.8294C65.9022 99.8294 65.757 99.7992 65.6225 99.7406C65.4879 99.6821 65.3668 99.5964 65.2667 99.489C65.1666 99.3816 65.0896 99.2547 65.0406 99.1162C64.9916 98.9778 64.9716 98.8307 64.9818 98.6842C64.9716 98.5377 64.9916 98.3906 65.0406 98.2522C65.0896 98.1138 65.1666 97.9869 65.2667 97.8795C65.3668 97.772 65.4879 97.6864 65.6225 97.6278C65.757 97.5693 65.9022 97.5391 66.049 97.5391C66.1957 97.5391 66.3409 97.5693 66.4755 97.6278C66.6101 97.6864 66.7312 97.772 66.8313 97.8795C66.9314 97.9869 67.0083 98.1138 67.0573 98.2522C67.1063 98.3906 67.1264 98.5377 67.1161 98.6842Z" fill="#FFA500"/>
<path id="Vector_24" d="M70.4244 98.6998C70.4102 98.9081 70.3355 99.1076 70.2094 99.274C70.0834 99.4403 69.9115 99.5661 69.7149 99.636C69.5183 99.7058 69.3056 99.7166 69.103 99.667C68.9004 99.6174 68.7167 99.5096 68.5745 99.3569C68.4323 99.2041 68.3378 99.0131 68.3026 98.8074C68.2675 98.6016 68.2932 98.39 68.3767 98.1987C68.4602 98.0073 68.5977 97.8446 68.7723 97.7305C68.947 97.6164 69.1512 97.5559 69.3598 97.5564C69.6523 97.5672 69.9286 97.6937 70.1281 97.908C70.3277 98.1223 70.4342 98.407 70.4244 98.6998Z" fill="#FFA500"/>
<path id="Vector_25" d="M73.7317 98.7154C73.7174 98.9248 73.6419 99.1253 73.5146 99.2921C73.3874 99.4589 73.2139 99.5845 73.0159 99.6535C72.8179 99.7224 72.6039 99.7316 72.4007 99.6798C72.1975 99.6281 72.014 99.5177 71.8729 99.3624C71.7319 99.2072 71.6395 99.0138 71.6074 98.8064C71.5752 98.5991 71.6047 98.3868 71.6921 98.1961C71.7795 98.0053 71.9209 97.8445 72.0989 97.7335C72.2769 97.6226 72.4835 97.5664 72.6931 97.572C72.981 97.5895 73.2507 97.7188 73.4447 97.9324C73.6387 98.1459 73.7417 98.4269 73.7317 98.7154Z" fill="#FFA500"/>
<g id="Group" opacity="0.2">
<path id="Vector_26" d="M47.2592 98.5955C47.2439 98.8045 47.1676 99.0045 47.0397 99.1706C46.9119 99.3366 46.7382 99.4614 46.5401 99.5296C46.3421 99.5978 46.1284 99.6062 45.9255 99.5539C45.7227 99.5017 45.5397 99.391 45.3991 99.2355C45.2586 99.0801 45.1667 98.8868 45.135 98.6796C45.1032 98.4724 45.1328 98.2605 45.2203 98.07C45.3078 97.8796 45.4492 97.719 45.627 97.6082C45.8048 97.4975 46.0112 97.4414 46.2206 97.4469C46.5099 97.463 46.7812 97.5927 46.9756 97.8077C47.17 98.0227 47.2719 98.3058 47.2592 98.5955Z" fill="white"/>
<path id="Vector_27" d="M50.5668 98.6111C50.577 98.7576 50.557 98.9047 50.508 99.0431C50.459 99.1816 50.3821 99.3085 50.282 99.4159C50.1819 99.5233 50.0608 99.6089 49.9262 99.6675C49.7916 99.7261 49.6464 99.7563 49.4997 99.7563C49.3529 99.7563 49.2077 99.7261 49.0731 99.6675C48.9386 99.6089 48.8175 99.5233 48.7174 99.4159C48.6173 99.3085 48.5403 99.1816 48.4913 99.0431C48.4423 98.9047 48.4223 98.7576 48.4325 98.6111C48.4223 98.4646 48.4423 98.3175 48.4913 98.1791C48.5403 98.0406 48.6173 97.9138 48.7174 97.8064C48.8175 97.6989 48.9386 97.6133 49.0731 97.5547C49.2077 97.4962 49.3529 97.4659 49.4997 97.4659C49.6464 97.4659 49.7916 97.4962 49.9262 97.5547C50.0608 97.6133 50.1819 97.6989 50.282 97.8064C50.3821 97.9138 50.459 98.0406 50.508 98.1791C50.557 98.3175 50.577 98.4646 50.5668 98.6111Z" fill="white"/>
<path id="Vector_28" d="M53.8808 98.6267C53.8654 98.8358 53.7891 99.0357 53.6613 99.2018C53.5335 99.3679 53.3598 99.4927 53.1617 99.5609C52.9636 99.629 52.7499 99.6375 52.5471 99.5852C52.3443 99.5329 52.1613 99.4222 52.0207 99.2668C51.8802 99.1114 51.7883 98.9181 51.7565 98.7109C51.7247 98.5037 51.7544 98.2917 51.8419 98.1013C51.9294 97.9108 52.0708 97.7502 52.2486 97.6395C52.4264 97.5287 52.6328 97.4726 52.8422 97.4782C53.131 97.4956 53.4015 97.6256 53.5956 97.8403C53.7898 98.0551 53.8922 98.3374 53.8808 98.6267Z" fill="white"/>
<path id="Vector_29" d="M57.1881 98.6424C57.1728 98.8514 57.0965 99.0514 56.9687 99.2174C56.8409 99.3835 56.6671 99.5083 56.4691 99.5765C56.271 99.6446 56.0573 99.6531 55.8545 99.6008C55.6517 99.5485 55.4686 99.4378 55.3281 99.2824C55.1876 99.127 55.0957 98.9337 55.0639 98.7265C55.0321 98.5193 55.0618 98.3074 55.1493 98.1169C55.2367 97.9264 55.3782 97.7659 55.556 97.6551C55.7338 97.5443 55.9402 97.4882 56.1496 97.4938C56.4384 97.5112 56.7089 97.6413 56.903 97.856C57.0972 98.0707 57.1995 98.353 57.1881 98.6424Z" fill="white"/>
<path id="Vector_30" d="M60.4959 98.6528C60.4816 98.8622 60.4061 99.0627 60.2788 99.2295C60.1515 99.3963 59.9781 99.5219 59.78 99.5909C59.582 99.6598 59.3681 99.669 59.1649 99.6172C58.9617 99.5655 58.7781 99.4551 58.6371 99.2998C58.496 99.1446 58.4037 98.9512 58.3715 98.7438C58.3394 98.5365 58.3688 98.3242 58.4562 98.1335C58.5436 97.9427 58.6851 97.7819 58.8631 97.6709C59.0411 97.56 59.2477 97.5038 59.4573 97.5094C59.7452 97.5269 60.0149 97.6562 60.2089 97.8698C60.4029 98.0833 60.5059 98.3643 60.4959 98.6528Z" fill="white"/>
<path id="Vector_31" d="M63.8091 98.668C63.795 98.8763 63.7203 99.0759 63.5942 99.2422C63.4682 99.4086 63.2963 99.5344 63.0997 99.6042C62.9031 99.6741 62.6904 99.6849 62.4878 99.6353C62.2852 99.5857 62.1014 99.4779 61.9592 99.3251C61.817 99.1724 61.7225 98.9814 61.6874 98.7756C61.6523 98.5698 61.678 98.3583 61.7615 98.1669C61.8449 97.9756 61.9825 97.8129 62.1571 97.6988C62.3318 97.5846 62.536 97.5241 62.7446 97.5247C63.0371 97.5355 63.3134 97.6619 63.5129 97.8762C63.7124 98.0906 63.819 98.3753 63.8091 98.668Z" fill="white"/>
<path id="Vector_32" d="M67.1171 98.6841C67.1273 98.8306 67.1073 98.9777 67.0583 99.1161C67.0093 99.2546 66.9324 99.3815 66.8323 99.4889C66.7322 99.5963 66.6111 99.6819 66.4765 99.7405C66.3419 99.7991 66.1967 99.8293 66.05 99.8293C65.9032 99.8293 65.758 99.7991 65.6234 99.7405C65.4888 99.6819 65.3677 99.5963 65.2677 99.4889C65.1676 99.3815 65.0906 99.2546 65.0416 99.1161C64.9926 98.9777 64.9726 98.8306 64.9828 98.6841C64.9726 98.5376 64.9926 98.3905 65.0416 98.2521C65.0906 98.1136 65.1676 97.9868 65.2677 97.8793C65.3677 97.7719 65.4888 97.6863 65.6234 97.6277C65.758 97.5692 65.9032 97.5389 66.05 97.5389C66.1967 97.5389 66.3419 97.5692 66.4765 97.6277C66.6111 97.6863 66.7322 97.7719 66.8323 97.8793C66.9324 97.9868 67.0093 98.1136 67.0583 98.2521C67.1073 98.3905 67.1273 98.5376 67.1171 98.6841Z" fill="white"/>
<path id="Vector_33" d="M70.4246 98.6993C70.4104 98.9076 70.3357 99.1072 70.2097 99.2735C70.0836 99.4398 69.9117 99.5657 69.7151 99.6355C69.5186 99.7053 69.3059 99.7161 69.1033 99.6665C68.9006 99.6169 68.7169 99.5091 68.5747 99.3564C68.4325 99.2036 68.338 99.0126 68.3029 98.8069C68.2677 98.6011 68.2935 98.3895 68.3769 98.1982C68.4604 98.0069 68.5979 97.8441 68.7726 97.73C68.9473 97.6159 69.1515 97.5554 69.3601 97.5559C69.6526 97.5667 69.9288 97.6932 70.1284 97.9075C70.3279 98.1218 70.4344 98.4065 70.4246 98.6993Z" fill="white"/>
<path id="Vector_34" d="M73.7329 98.7152C73.7186 98.9245 73.6431 99.1251 73.5159 99.2918C73.3886 99.4586 73.2152 99.5843 73.0171 99.6532C72.8191 99.7222 72.6052 99.7313 72.4019 99.6796C72.1987 99.6279 72.0152 99.5175 71.8741 99.3622C71.7331 99.2069 71.6408 99.0136 71.6086 98.8062C71.5764 98.5988 71.6059 98.3866 71.6933 98.1958C71.7807 98.0051 71.9221 97.8442 72.1001 97.7333C72.2781 97.6223 72.4847 97.5662 72.6944 97.5718C72.9822 97.5892 73.2519 97.7185 73.446 97.9321C73.64 98.1457 73.7429 98.4267 73.7329 98.7152Z" fill="white"/>
</g>
<path id="Vector_35" d="M69.0321 23.6887C69.3928 23.5297 69.6989 23.2681 69.9122 22.9363C70.1255 22.6046 70.2366 22.2174 70.2317 21.8229C70.2451 21.5665 70.2063 21.31 70.1175 21.0691C70.0287 20.8282 69.8918 20.6079 69.7152 20.4216C69.5386 20.2354 69.326 20.087 69.0902 19.9857C68.8545 19.8843 68.6006 19.832 68.344 19.832C68.0875 19.832 67.8336 19.8843 67.5979 19.9857C67.3621 20.087 67.1495 20.2354 66.9729 20.4216C66.7963 20.6079 66.6594 20.8282 66.5706 21.0691C66.4818 21.31 66.443 21.5665 66.4564 21.8229C66.4485 22.2213 66.5587 22.6132 66.7731 22.9489C66.9876 23.2847 67.2966 23.5494 67.6612 23.7095C64.7531 24.1461 64.883 27.3059 64.883 27.3059L71.7584 27.3371C71.7584 27.3371 71.9194 24.1201 69.0321 23.6887Z" fill="#FFA500"/>
<path id="Vector_36" opacity="0.1" d="M69.0321 23.6887C69.3928 23.5297 69.6989 23.2681 69.9122 22.9363C70.1255 22.6046 70.2366 22.2174 70.2317 21.8229C70.2451 21.5665 70.2063 21.31 70.1175 21.0691C70.0287 20.8282 69.8918 20.6079 69.7152 20.4216C69.5386 20.2354 69.326 20.087 69.0902 19.9857C68.8545 19.8843 68.6006 19.832 68.344 19.832C68.0875 19.832 67.8336 19.8843 67.5979 19.9857C67.3621 20.087 67.1495 20.2354 66.9729 20.4216C66.7963 20.6079 66.6594 20.8282 66.5706 21.0691C66.4818 21.31 66.443 21.5665 66.4564 21.8229C66.4485 22.2213 66.5587 22.6132 66.7731 22.9489C66.9876 23.2847 67.2966 23.5494 67.6612 23.7095C64.7531 24.1461 64.883 27.3059 64.883 27.3059L71.7584 27.3371C71.7584 27.3371 71.9194 24.1201 69.0321 23.6887Z" fill="black"/>
<path id="Vector_37" d="M80.2047 29.3753L55.6995 29.264L55.6862 32.1952L80.1914 32.3065L80.2047 29.3753Z" fill="#FFA500"/>
<path id="Vector_38" opacity="0.2" d="M80.2047 29.3753L55.6995 29.264L55.6862 32.1952L80.1914 32.3065L80.2047 29.3753Z" fill="white"/>
</g>
</g>
</svg>
