<svg width="160" height="132" viewBox="0 0 160 132" fill="none" xmlns="http://www.w3.org/2000/svg">
<g id="Group 32">
<path id="Rectangle 20" d="M160 50L0 15V123L160 92V50Z" fill="#FFA500"/>
<g id="devices/pana">
<g id="Mobile">
<path id="Vector" d="M133.086 58.7497L113.057 58.657C112.484 58.6557 111.917 58.5414 111.388 58.3207C110.859 58.1 110.379 57.7773 109.975 57.371C109.572 56.9647 109.253 56.4829 109.036 55.9533C108.82 55.4236 108.711 54.8565 108.715 54.2845L108.927 4.32283C108.93 3.75183 109.046 3.18703 109.268 2.6607C109.49 2.13437 109.814 1.65683 110.221 1.25538C110.628 0.853935 111.11 0.536443 111.64 0.321051C112.17 0.105659 112.737 -0.00340865 113.309 8.11743e-05L133.338 0.0895163C134.494 0.093901 135.6 0.555317 136.415 1.37254C137.229 2.18976 137.686 3.29605 137.684 4.4487L137.472 54.4137C137.47 54.986 137.355 55.5523 137.134 56.0802C136.912 56.6081 136.588 57.0871 136.181 57.4899C135.774 57.8928 135.29 58.2114 134.759 58.4276C134.228 58.6437 133.66 58.7532 133.086 58.7497Z" fill="#455A64"/>
<path id="Vector_2" d="M133.312 1.8293H129.428C129.301 1.83103 129.177 1.85761 129.061 1.90753C128.945 1.95745 128.84 2.02972 128.752 2.1202C128.664 2.21068 128.595 2.31758 128.548 2.43478C128.502 2.55198 128.479 2.67717 128.481 2.80316V3.5054C128.484 3.75968 128.386 4.00478 128.209 4.18767C128.032 4.37055 127.79 4.47649 127.535 4.48257L119.962 4.44614C119.835 4.44316 119.71 4.41498 119.594 4.36324C119.478 4.3115 119.373 4.23724 119.286 4.14477C119.199 4.0523 119.131 3.94346 119.086 3.8246C119.042 3.70574 119.021 3.57922 119.026 3.4524V2.74354C119.031 2.61683 119.01 2.4905 118.965 2.37184C118.92 2.25317 118.853 2.14451 118.766 2.05213C118.679 1.95975 118.574 1.88548 118.458 1.83359C118.342 1.7817 118.217 1.75322 118.09 1.7498H116.722H113.323C112.922 1.74762 112.525 1.82421 112.154 1.97518C111.783 2.12615 111.445 2.34855 111.16 2.62969C110.876 2.91082 110.649 3.24519 110.494 3.61369C110.338 3.9822 110.257 4.37762 110.255 4.77738L110.046 53.5466C110.044 54.3543 110.364 55.1296 110.935 55.7023C111.505 56.2749 112.281 56.5981 113.09 56.6007L133.079 56.6934C133.889 56.697 134.666 56.3803 135.242 55.8128C135.818 55.2453 136.144 54.4733 136.15 53.6659L136.356 4.89663C136.359 4.49548 136.283 4.09768 136.131 3.7261C135.98 3.35452 135.756 3.01649 135.473 2.73144C135.19 2.44639 134.854 2.21995 134.483 2.06513C134.112 1.91031 133.714 1.83016 133.312 1.8293Z" fill="white"/>
<path id="Vector_3" d="M132.983 35.0128H113.203V36.3345H132.983V35.0128Z" fill="#455A64"/>
<path id="Vector_4" d="M132.279 40.2103C132.279 40.2568 128.056 40.2967 122.85 40.2967C117.644 40.2967 113.418 40.2568 113.418 40.2103C113.418 40.1637 117.641 40.1238 122.85 40.1238C128.059 40.1238 132.279 40.1637 132.279 40.2103Z" fill="#455A64"/>
<path id="Vector_5" d="M132.279 8.9041C132.279 8.95399 128.056 8.99058 122.85 8.99058C117.644 8.99058 113.418 8.95399 113.418 8.9041C113.418 8.85421 117.641 8.81763 122.85 8.81763C128.059 8.81763 132.279 8.84756 132.279 8.9041Z" fill="#455A64"/>
<path id="Vector_6" d="M132.279 42.6154C132.279 42.662 128.056 42.7019 122.85 42.7019C117.644 42.7019 113.418 42.662 113.418 42.6154C113.418 42.5688 117.641 42.5289 122.85 42.5289C128.059 42.5289 132.279 42.5655 132.279 42.6154Z" fill="#455A64"/>
<path id="Vector_7" d="M132.279 45.0098C132.279 45.0564 128.056 45.0963 122.85 45.0963C117.644 45.0963 113.418 45.0564 113.418 45.0098C113.418 44.9633 117.641 44.9233 122.85 44.9233C128.059 44.9233 132.279 44.9699 132.279 45.0098Z" fill="#455A64"/>
<path id="Vector_8" d="M132.279 47.4216C132.279 47.4681 128.056 47.508 122.85 47.508C117.644 47.508 113.418 47.4681 113.418 47.4216C113.418 47.375 117.641 47.3351 122.85 47.3351C128.059 47.3351 132.279 47.3717 132.279 47.4216Z" fill="#455A64"/>
<path id="Vector_9" d="M132.279 49.8234C132.279 49.8733 128.056 49.9099 122.85 49.9099C117.644 49.9099 113.418 49.8733 113.418 49.8234C113.418 49.7735 117.641 49.7369 122.85 49.7369C128.059 49.7369 132.279 49.7769 132.279 49.8234Z" fill="#455A64"/>
<path id="Vector_10" d="M132.548 52.5491C132.548 52.5957 128.325 52.6356 123.119 52.6356C117.914 52.6356 113.687 52.5957 113.687 52.5491C113.687 52.5026 117.91 52.4626 123.119 52.4626C128.328 52.4626 132.548 52.4992 132.548 52.5491Z" fill="#455A64"/>
<path id="Vector_11" d="M133.248 11.6376H113.418V30.7802H133.248V11.6376Z" fill="#E0E0E0"/>
<path id="Vector_12" d="M114.956 29.1393L120.444 19.2881L124.929 25.5851L127.655 22.2395L131.712 29.1393H114.956Z" fill="#FFA500"/>
<path id="Vector_13" d="M126.841 17.3736C126.841 17.6553 126.757 17.9307 126.601 18.1649C126.444 18.3991 126.221 18.5817 125.96 18.6895C125.699 18.7973 125.412 18.8255 125.135 18.7706C124.858 18.7156 124.604 18.5799 124.404 18.3807C124.205 18.1815 124.069 17.9277 124.014 17.6514C123.958 17.3752 123.987 17.0888 124.095 16.8285C124.203 16.5682 124.386 16.3458 124.621 16.1893C124.855 16.0328 125.131 15.9492 125.414 15.9492C125.792 15.9501 126.155 16.1004 126.422 16.3674C126.69 16.6343 126.84 16.9961 126.841 17.3736Z" fill="#FFA500"/>
<path id="Vector_14" d="M131.712 29.1935C131.712 29.1935 131.712 29.167 131.712 29.114C131.712 29.061 131.712 28.9848 131.712 28.8921C131.712 28.6867 131.712 28.4018 131.712 28.0308C131.712 27.2723 131.712 26.1726 131.689 24.778C131.689 21.9823 131.665 18.0007 131.649 13.2209L131.728 13.3004H114.976C114.953 13.3202 115.152 13.1215 115.069 13.2076V17.5138C115.069 18.9216 115.069 20.2996 115.069 21.6378C115.069 24.3209 115.069 26.8549 115.069 29.1869L114.986 29.1041L127.1 29.1471L130.52 29.167H131.426H131.659H131.742H131.669H131.443H130.553L127.154 29.1869L114.986 29.23H114.903V29.1471C114.903 26.8284 114.903 24.2812 114.903 21.5981C114.903 20.2731 114.903 18.8819 114.903 17.4741V13.1679C114.817 13.2507 115.016 13.0486 114.999 13.0718H131.752H131.785V13.2109C131.765 18.014 131.752 22.0121 131.742 24.8211C131.742 26.2057 131.742 27.2988 131.722 28.054C131.722 28.4184 131.722 28.7 131.722 28.8987C131.722 28.9881 131.722 29.0577 131.722 29.114C131.722 29.1409 131.719 29.1676 131.712 29.1935Z" fill="#455A64"/>
</g>
<g id="Tablet">
<path id="Vector_15" d="M27 8.65062L27 52.7791C27 54.8921 28.7168 56.605 30.8345 56.605L97.6443 56.605C99.762 56.605 101.479 54.8921 101.479 52.7791V8.65062C101.479 6.53764 99.762 4.82474 97.6443 4.82474L30.8345 4.82474C28.7168 4.82474 27 6.53764 27 8.65062Z" fill="#455A64"/>
<path id="Vector_16" d="M32.0933 6.458V54.9722L94.2917 54.9722V6.458L32.0933 6.458Z" fill="white"/>
<path id="Vector_17" d="M97.7346 28.7269C98.1286 28.7269 98.5137 28.8435 98.8413 29.0619C99.1689 29.2803 99.4242 29.5907 99.5749 29.9538C99.7257 30.317 99.7651 30.7166 99.6883 31.1021C99.6114 31.4877 99.4217 31.8418 99.1431 32.1198C98.8646 32.3977 98.5096 32.587 98.1232 32.6637C97.7368 32.7404 97.3363 32.701 96.9723 32.5506C96.6084 32.4002 96.2973 32.1454 96.0784 31.8186C95.8595 31.4917 95.7427 31.1075 95.7427 30.7144C95.7427 30.1873 95.9525 29.6818 96.3261 29.309C96.6997 28.9363 97.2063 28.7269 97.7346 28.7269Z" fill="#263238"/>
<path id="Vector_18" d="M29.144 23.3214V38.1082C29.144 38.3314 29.3254 38.5123 29.5491 38.5123H29.5623C29.786 38.5123 29.9674 38.3314 29.9674 38.1082V23.3214C29.9674 23.0982 29.786 22.9173 29.5623 22.9173H29.5491C29.3254 22.9173 29.144 23.0982 29.144 23.3214Z" fill="#263238"/>
<path id="Vector_19" d="M80.2444 10.1012H60.4644V11.4229H80.2444V10.1012Z" fill="#455A64"/>
<path id="Vector_20" d="M54.4775 32.8011H34.6975V34.1228H54.4775V32.8011Z" fill="#455A64"/>
<path id="Vector_21" d="M85.0622 15.017C85.0622 15.0669 79.5578 15.1035 72.7785 15.1035C65.9993 15.1035 60.4783 15.0669 60.4783 15.017C60.4783 14.9671 65.9827 14.9305 72.7785 14.9305C79.5744 14.9305 85.0622 14.9705 85.0622 15.017Z" fill="#455A64"/>
<path id="Vector_22" d="M85.0622 17.9023C85.0622 17.9488 79.5578 17.9888 72.7785 17.9888C65.9993 17.9888 60.4783 17.9488 60.4783 17.9023C60.4783 17.8557 65.9827 17.8158 72.7785 17.8158C79.5744 17.8158 85.0622 17.8524 85.0622 17.9023Z" fill="#455A64"/>
<path id="Vector_23" d="M85.0622 20.7844C85.0622 20.8309 79.5578 20.8708 72.7785 20.8708C65.9993 20.8708 60.4783 20.8309 60.4783 20.7844C60.4783 20.7378 65.9827 20.6979 72.7785 20.6979C79.5744 20.6979 85.0622 20.7378 85.0622 20.7844Z" fill="#455A64"/>
<path id="Vector_24" d="M85.0622 23.6659C85.0622 23.7158 79.5578 23.7524 72.7785 23.7524C65.9993 23.7524 60.4783 23.7158 60.4783 23.6659C60.4783 23.6161 65.9827 23.5795 72.7785 23.5795C79.5744 23.5795 85.0622 23.6194 85.0622 23.6659Z" fill="#455A64"/>
<path id="Vector_25" d="M85.0622 26.5456C85.0622 26.5922 79.5578 26.6321 72.7785 26.6321C65.9993 26.6321 60.4783 26.5922 60.4783 26.5456C60.4783 26.499 65.9827 26.4591 72.7785 26.4591C79.5744 26.4591 85.0622 26.5023 85.0622 26.5456Z" fill="#455A64"/>
<path id="Vector_26" d="M79.6667 29.4332C79.6667 29.4797 75.3674 29.5196 70.0655 29.5196C64.7636 29.5196 60.4644 29.4797 60.4644 29.4332C60.4644 29.3866 64.7603 29.3467 70.0655 29.3467C75.3707 29.3467 79.6667 29.3866 79.6667 29.4332Z" fill="#455A64"/>
<path id="Vector_27" d="M67.1831 37.9994C67.1831 38.046 59.959 38.0859 51.0483 38.0859C42.1377 38.0859 34.9136 38.046 34.9136 37.9994C34.9136 37.9529 42.1377 37.913 51.0483 37.913C59.959 37.913 67.1831 37.9495 67.1831 37.9994Z" fill="#455A64"/>
<path id="Vector_28" d="M67.1831 40.4009C67.1831 40.4508 59.959 40.4874 51.0483 40.4874C42.1377 40.4874 34.9136 40.4508 34.9136 40.4009C34.9136 40.351 42.1377 40.3145 51.0483 40.3145C59.959 40.3145 67.1831 40.3544 67.1831 40.4009Z" fill="#455A64"/>
<path id="Vector_29" d="M67.1831 42.8051C67.1831 42.8517 59.959 42.8916 51.0483 42.8916C42.1377 42.8916 34.9136 42.8517 34.9136 42.8051C34.9136 42.7585 42.1377 42.7186 51.0483 42.7186C59.959 42.7186 67.1831 42.7552 67.1831 42.8051Z" fill="#455A64"/>
<path id="Vector_30" d="M67.1831 45.2071C67.1831 45.257 59.959 45.2936 51.0483 45.2936C42.1377 45.2936 34.9136 45.257 34.9136 45.2071C34.9136 45.1572 42.1377 45.1206 51.0483 45.1206C59.959 45.1206 67.1831 45.1605 67.1831 45.2071Z" fill="#455A64"/>
<path id="Vector_31" d="M67.1831 47.6117C67.1831 47.6583 59.959 47.6982 51.0483 47.6982C42.1377 47.6982 34.9136 47.6583 34.9136 47.6117C34.9136 47.5652 42.1377 47.5253 51.0483 47.5253C59.959 47.5253 67.1831 47.5652 67.1831 47.6117Z" fill="#455A64"/>
<path id="Vector_32" d="M54.7434 9.42212H34.9136V28.5648H54.7434V9.42212Z" fill="#FFA500"/>
<path id="Vector_33" d="M36.4519 26.9286L41.9397 17.0774L46.4249 23.3711L49.1505 20.0288L53.2075 26.9286H36.4519Z" fill="#E0E0E0"/>
<path id="Vector_34" d="M48.3366 15.1599C48.3372 15.4418 48.2541 15.7175 48.0976 15.9522C47.9411 16.1868 47.7184 16.3699 47.4576 16.4782C47.1968 16.5865 46.9097 16.6152 46.6325 16.5606C46.3554 16.5061 46.1007 16.3707 45.9007 16.1716C45.7008 15.9725 45.5645 15.7187 45.5091 15.4423C45.4538 15.166 45.4818 14.8794 45.5898 14.6189C45.6977 14.3585 45.8807 14.1358 46.1156 13.9792C46.3504 13.8225 46.6265 13.7389 46.909 13.7389C47.287 13.7389 47.6496 13.8885 47.9173 14.1549C48.1849 14.4213 48.3357 14.7827 48.3366 15.1599Z" fill="#E0E0E0"/>
<path id="Vector_35" d="M53.2065 26.982C53.2065 26.982 53.2065 26.9522 53.2065 26.9025C53.2065 26.8529 53.2065 26.7734 53.2065 26.6806C53.2065 26.4752 53.2065 26.1871 53.2065 25.8194C53.2065 25.0575 53.2065 23.9611 53.1866 22.5665C53.1866 19.7708 53.1634 15.7893 53.1468 11.0094L53.2265 11.0889H36.4742C36.451 11.1088 36.6502 10.9133 36.5672 10.9995V13.1625C36.5672 13.878 36.5672 14.5902 36.5672 15.2924V19.4164C36.5672 22.0995 36.5672 24.6335 36.5672 26.9655L36.4842 26.8827L48.5985 26.9224L52.0147 26.9456H52.921H53.1567H53.2397H53.1667H52.9409H52.0512L48.6516 26.9688L36.4842 27.0085H36.4012V26.9257C36.4012 24.607 36.4012 22.0597 36.4012 19.3767C36.4012 18.0362 36.4012 16.6615 36.4012 15.2526V10.9465C36.3149 11.0293 36.514 10.8272 36.4974 10.8471H53.2497H53.3327V10.9299C53.3161 15.7296 53.3028 19.7311 53.2929 22.54C53.2929 23.9246 53.2763 25.0178 53.2729 25.773C53.2729 26.1341 53.2729 26.4355 53.2729 26.6177C53.2729 26.7071 53.2729 26.7767 53.2729 26.833C53.2706 26.8893 53.2468 26.9426 53.2065 26.982Z" fill="#455A64"/>
<path id="Vector_36" d="M85.6685 35.3395H71.6353V48.8874H85.6685V35.3395Z" fill="#FFA500"/>
<path id="Vector_37" d="M72.7244 47.7277L76.6053 40.7583L79.7825 45.2135L81.7113 42.8451L84.5797 47.7277H72.7244Z" fill="#E0E0E0"/>
<path id="Vector_38" d="M81.1345 39.3997C81.1345 39.5963 81.0761 39.7884 80.9667 39.9518C80.8572 40.1153 80.7017 40.2426 80.5197 40.3178C80.3377 40.393 80.1374 40.4127 79.9442 40.3744C79.751 40.336 79.5736 40.2414 79.4343 40.1024C79.295 39.9634 79.2001 39.7864 79.1617 39.5936C79.1233 39.4008 79.143 39.201 79.2184 39.0195C79.2938 38.8379 79.4214 38.6827 79.5852 38.5735C79.749 38.4643 79.9416 38.406 80.1385 38.406C80.4027 38.406 80.656 38.5107 80.8428 38.6971C81.0296 38.8834 81.1345 39.1362 81.1345 39.3997Z" fill="#E0E0E0"/>
<path id="Vector_39" d="M84.5813 47.7641C84.5813 47.7641 84.5813 47.7443 84.5813 47.7111C84.5813 47.678 84.5813 47.6184 84.5813 47.5521C84.5813 47.4064 84.5813 47.2209 84.5813 46.9427C84.5813 46.406 84.5813 45.6177 84.5813 44.6239C84.5813 42.6365 84.5647 39.8275 84.5514 36.4455L84.6079 36.5018H72.7525C72.7359 36.5018 72.8786 36.3759 72.8189 36.4389V39.4797C72.8189 40.4734 72.8189 41.4462 72.8189 42.398C72.8189 44.296 72.8189 46.088 72.8189 47.7376L72.7624 47.6813L81.3012 47.7443H83.7181H84.3622H84.5846C84.5846 47.7443 84.568 47.7443 84.5348 47.7443H84.3755H83.7447L81.3377 47.7608L72.7292 47.7906H72.6695V47.731C72.6695 46.0748 72.6695 44.2894 72.6695 42.3913V36.4819C72.6097 36.5382 72.7525 36.3958 72.7392 36.4124H84.5946H84.6543V36.4687C84.6543 39.8673 84.6311 42.6961 84.6245 44.6836C84.6245 45.6773 84.6245 46.4392 84.6079 46.9725C84.6079 47.2308 84.6079 47.4296 84.6079 47.572C84.6079 47.635 84.6079 47.6846 84.6079 47.7244C84.6079 47.7641 84.5846 47.7674 84.5813 47.7641Z" fill="#455A64"/>
</g>
<g id="Computer">
<path id="Vector_40" d="M131.83 61.8387H37.3952C34.7237 61.8387 32.5581 63.9995 32.5581 66.665V125.703C32.5581 128.368 34.7237 130.529 37.3952 130.529H131.83C134.501 130.529 136.667 128.368 136.667 125.703V66.665C136.667 63.9995 134.501 61.8387 131.83 61.8387Z" fill="#263238"/>
<path id="Vector_41" d="M28.2061 125.45H141V125.566C141 127.13 140.377 128.63 139.269 129.736C138.161 130.841 136.658 131.463 135.09 131.463H34.1155C32.5482 131.463 31.0451 130.841 29.9369 129.736C28.8286 128.63 28.2061 127.13 28.2061 125.566V125.45Z" fill="#263238"/>
<path id="Vector_42" d="M133.584 64.5681H35.3542V122.576H133.584V64.5681Z" fill="#E0E0E0"/>
<path id="Vector_43" d="M74.3489 125.45L75.7499 127.673H95.4436L96.745 125.45H74.3489Z" fill="#455A64"/>
<path id="Vector_44" d="M129.069 68.4326H38.6311V122.555H129.069V68.4326Z" fill="#FAFAFA"/>
<path id="Vector_45" d="M42.4912 71.1C42.4919 71.2501 42.4478 71.3971 42.3647 71.5223C42.2816 71.6475 42.1631 71.7452 42.0242 71.8031C41.8853 71.8611 41.7324 71.8765 41.5847 71.8477C41.437 71.8188 41.3012 71.7468 41.1946 71.6408C41.0879 71.5349 41.0152 71.3997 40.9856 71.2525C40.956 71.1053 40.9708 70.9526 41.0283 70.8138C41.0857 70.675 41.1831 70.5563 41.3082 70.4728C41.4333 70.3893 41.5804 70.3447 41.731 70.3447C41.932 70.3447 42.1249 70.4242 42.2674 70.5657C42.4099 70.7073 42.4903 70.8994 42.4912 71.1Z" fill="#455A64"/>
<path id="Vector_46" d="M45.5852 71.1C45.5859 71.2503 45.5418 71.3974 45.4585 71.5226C45.3752 71.6479 45.2565 71.7456 45.1174 71.8035C44.9784 71.8613 44.8252 71.8766 44.6774 71.8474C44.5297 71.8182 44.3939 71.7459 44.2874 71.6397C44.1808 71.5334 44.1084 71.3979 44.0791 71.2505C44.0499 71.103 44.0652 70.9502 44.1232 70.8115C44.1812 70.6727 44.2791 70.5543 44.4046 70.4712C44.5302 70.3881 44.6776 70.3441 44.8283 70.3447C45.029 70.3447 45.2215 70.4243 45.3635 70.5659C45.5055 70.7076 45.5852 70.8997 45.5852 71.1Z" fill="#455A64"/>
<path id="Vector_47" d="M48.6838 71.1C48.6845 71.2501 48.6405 71.3971 48.5573 71.5223C48.4742 71.6475 48.3557 71.7452 48.2168 71.8031C48.078 71.8611 47.925 71.8766 47.7773 71.8477C47.6296 71.8188 47.4938 71.7468 47.3872 71.6408C47.2805 71.5349 47.2078 71.3997 47.1782 71.2525C47.1486 71.1053 47.1634 70.9526 47.2209 70.8138C47.2783 70.675 47.3758 70.5563 47.5009 70.4728C47.626 70.3893 47.7731 70.3447 47.9236 70.3447C48.0233 70.3443 48.122 70.3635 48.2143 70.4013C48.3065 70.439 48.3903 70.4946 48.461 70.5648C48.5316 70.6349 48.5877 70.7183 48.6259 70.8102C48.6642 70.902 48.6838 71.0005 48.6838 71.1Z" fill="#455A64"/>
<path id="Vector_48" d="M129.069 74.412C129.069 74.4619 108.817 74.4985 83.8516 74.4985C58.8859 74.4985 38.6311 74.4619 38.6311 74.412C38.6311 74.3622 58.8825 74.3256 83.8516 74.3256C108.821 74.3256 129.069 74.3655 129.069 74.412Z" fill="#455A64"/>
<path id="Vector_49" d="M136.667 125.497H32.5581V125.828H136.667V125.497Z" fill="#455A64"/>
<path id="Vector_50" d="M65.8237 100.71H46.0437V102.032H65.8237V100.71Z" fill="#455A64"/>
<path id="Vector_51" d="M91.3725 82.3793H71.5925V83.7009H91.3725V82.3793Z" fill="#455A64"/>
<path id="Vector_52" d="M120.794 87.2979C120.794 87.3445 109.778 87.3844 96.193 87.3844C82.608 87.3844 71.5925 87.3445 71.5925 87.2979C71.5925 87.2514 82.6047 87.2081 96.193 87.2081C109.781 87.2081 120.794 87.248 120.794 87.2979Z" fill="#455A64"/>
<path id="Vector_53" d="M120.794 90.1795C120.794 90.2261 109.778 90.266 96.193 90.266C82.608 90.266 71.5925 90.2261 71.5925 90.1795C71.5925 90.1329 82.6047 90.093 96.193 90.093C109.781 90.093 120.794 90.1429 120.794 90.1795Z" fill="#455A64"/>
<path id="Vector_54" d="M120.794 93.0615C120.794 93.1113 109.778 93.1479 96.193 93.1479C82.608 93.1479 71.5925 93.1113 71.5925 93.0615C71.5925 93.0116 82.6047 92.975 96.193 92.975C109.781 92.975 120.794 93.0149 120.794 93.0615Z" fill="#455A64"/>
<path id="Vector_55" d="M120.794 95.9472C120.794 95.9938 109.778 96.0337 96.193 96.0337C82.608 96.0337 71.5925 95.9938 71.5925 95.9472C71.5925 95.9007 82.6047 95.8574 96.193 95.8574C109.781 95.8574 120.794 95.8973 120.794 95.9472Z" fill="#455A64"/>
<path id="Vector_56" d="M120.794 98.8288C120.794 98.8754 109.778 98.9153 96.193 98.9153C82.608 98.9153 71.5925 98.8754 71.5925 98.8288C71.5925 98.7822 82.6047 98.7423 96.193 98.7423C109.781 98.7423 120.794 98.7789 120.794 98.8288Z" fill="#455A64"/>
<path id="Vector_57" d="M90.7982 101.711C90.7982 101.757 86.4989 101.797 81.197 101.797C75.8951 101.797 71.5925 101.757 71.5925 101.711C71.5925 101.664 75.9084 101.624 81.197 101.624C86.4856 101.624 90.7982 101.664 90.7982 101.711Z" fill="#455A64"/>
<path id="Vector_58" d="M120.433 107.305C120.433 107.355 113.192 107.391 104.265 107.391C95.3379 107.391 88.0972 107.355 88.0972 107.305C88.0972 107.255 95.3346 107.219 104.265 107.219C113.196 107.219 120.433 107.258 120.433 107.305Z" fill="#455A64"/>
<path id="Vector_59" d="M120.433 110.366C120.433 110.413 113.192 110.453 104.265 110.453C95.3379 110.453 88.0972 110.413 88.0972 110.366C88.0972 110.32 95.3346 110.28 104.265 110.28C113.196 110.28 120.433 110.32 120.433 110.366Z" fill="#455A64"/>
<path id="Vector_60" d="M120.433 113.427C120.433 113.473 113.192 113.513 104.265 113.513C95.3379 113.513 88.0972 113.473 88.0972 113.427C88.0972 113.38 95.3346 113.34 104.265 113.34C113.196 113.34 120.433 113.377 120.433 113.427Z" fill="#455A64"/>
<path id="Vector_61" d="M120.433 116.487C120.433 116.534 113.192 116.574 104.265 116.574C95.3379 116.574 88.0972 116.534 88.0972 116.487C88.0972 116.441 95.3346 116.401 104.265 116.401C113.196 116.401 120.433 116.437 120.433 116.487Z" fill="#455A64"/>
<path id="Vector_62" d="M65.8743 107.014C65.8743 107.06 61.5585 107.1 56.2466 107.1C50.9348 107.1 46.6189 107.06 46.6189 107.014C46.6189 106.967 50.9348 106.927 56.2466 106.927C61.5585 106.927 65.8743 106.964 65.8743 107.014Z" fill="#455A64"/>
<path id="Vector_63" d="M65.8743 109.416C65.8743 109.465 61.5585 109.502 56.2466 109.502C50.9348 109.502 46.6189 109.465 46.6189 109.416C46.6189 109.366 50.9348 109.329 56.2466 109.329C61.5585 109.329 65.8743 109.356 65.8743 109.416Z" fill="#455A64"/>
<path id="Vector_64" d="M65.8743 111.82C65.8743 111.867 61.5585 111.907 56.2466 111.907C50.9348 111.907 46.6189 111.867 46.6189 111.82C46.6189 111.774 50.9348 111.734 56.2466 111.734C61.5585 111.734 65.8743 111.774 65.8743 111.82Z" fill="#455A64"/>
<path id="Vector_65" d="M65.8743 114.221C65.8743 114.271 61.5585 114.308 56.2466 114.308C50.9348 114.308 46.6189 114.271 46.6189 114.221C46.6189 114.171 50.9348 114.135 56.2466 114.135C61.5585 114.135 65.8743 114.175 65.8743 114.221Z" fill="#455A64"/>
<path id="Vector_66" d="M65.8743 116.643C65.8743 116.69 61.5585 116.73 56.2466 116.73C50.9348 116.73 46.6189 116.69 46.6189 116.643C46.6189 116.597 50.9348 116.557 56.2466 116.557C61.5585 116.557 65.8743 116.58 65.8743 116.643Z" fill="#455A64"/>
<path id="Vector_67" d="M65.8735 78.0653H46.0437V97.208H65.8735V78.0653Z" fill="#E0E0E0"/>
<path id="Vector_68" d="M47.5801 95.569L53.0679 85.7178L57.5531 92.0147L60.282 88.6725L64.3356 95.569H47.5801Z" fill="#FFA500"/>
<path id="Vector_69" d="M59.4667 83.8036C59.4667 84.0853 59.383 84.3607 59.2261 84.595C59.0692 84.8292 58.8463 85.0118 58.5854 85.1196C58.3246 85.2274 58.0375 85.2556 57.7606 85.2006C57.4837 85.1456 57.2293 85.01 57.0297 84.8108C56.83 84.6116 56.6941 84.3578 56.639 84.0815C56.5839 83.8052 56.6122 83.5188 56.7202 83.2585C56.8283 82.9983 57.0113 82.7758 57.246 82.6193C57.4808 82.4628 57.7568 82.3793 58.0391 82.3793C58.4177 82.3793 58.7809 82.5293 59.0486 82.7965C59.3163 83.0636 59.4667 83.4259 59.4667 83.8036Z" fill="#FFA500"/>
<path id="Vector_70" d="M64.3361 95.6217C64.3347 95.5963 64.3347 95.5709 64.3361 95.5455C64.3361 95.4859 64.3361 95.413 64.3361 95.3202C64.3361 95.1182 64.3361 94.83 64.3361 94.459C64.3361 93.7004 64.3361 92.604 64.3129 91.2095C64.3129 88.4138 64.2897 84.4322 64.2731 79.649L64.3527 79.7318H47.6005C47.5772 79.7517 47.7764 79.553 47.6934 79.6391V83.9453C47.6934 85.3498 47.6934 86.7277 47.6934 88.0693C47.6934 90.749 47.6934 93.2831 47.6934 95.615L47.6104 95.5355L59.7248 95.5753L63.1443 95.5985H64.0506H64.366C64.366 95.5985 64.3428 95.5985 64.293 95.5985H64.0672H63.1775L59.7779 95.6217L47.6104 95.6614H47.5308V95.5786C47.5308 93.2599 47.5308 90.7126 47.5308 88.0328C47.5308 86.6913 47.5308 85.3133 47.5308 83.9088V79.6026L47.627 79.5066H64.3793H64.4623V79.5861C64.4623 84.3891 64.4291 88.3873 64.4191 91.1962C64.4191 92.5841 64.4191 93.6739 64.3992 94.4292C64.3992 94.7936 64.3992 95.0751 64.3992 95.2772C64.3992 95.3666 64.3992 95.4362 64.3992 95.4892C64.3992 95.5422 64.3394 95.625 64.3361 95.6217Z" fill="#455A64"/>
<path id="Vector_71" d="M85.6128 105.844H71.5796V119.392H85.6128V105.844Z" fill="#E0E0E0"/>
<path id="Vector_72" d="M72.6687 118.232L76.5497 111.263L79.7268 115.718L81.6557 113.35L84.5274 118.232H72.6687Z" fill="#FFA500"/>
<path id="Vector_73" d="M81.0789 109.905C81.0789 110.102 81.0204 110.294 80.911 110.457C80.8016 110.621 80.646 110.748 80.464 110.823C80.282 110.899 80.0818 110.918 79.8886 110.88C79.6954 110.842 79.5179 110.747 79.3786 110.608C79.2393 110.469 79.1445 110.292 79.1061 110.099C79.0676 109.906 79.0873 109.707 79.1627 109.525C79.2381 109.343 79.3658 109.188 79.5296 109.079C79.6933 108.97 79.8859 108.912 80.0829 108.912C80.347 108.912 80.6004 109.016 80.7871 109.203C80.9739 109.389 81.0789 109.642 81.0789 109.905Z" fill="#FFA500"/>
<path id="Vector_74" d="M84.5282 118.272C84.527 118.253 84.527 118.235 84.5282 118.216C84.5282 118.176 84.5282 118.123 84.5282 118.057C84.5282 117.914 84.5282 117.726 84.5282 117.447C84.5282 116.911 84.5282 116.122 84.5116 115.145C84.5116 113.158 84.5116 110.349 84.4851 106.967L84.5415 107.023H72.6828C72.6828 107.023 72.8089 106.897 72.7492 106.96V112.923C72.7492 114.821 72.7492 116.613 72.7492 118.266L72.6894 118.206L81.2647 118.236L83.6816 118.252H84.3224H83.6916H81.288L72.6761 118.282H72.6197V118.226C72.6197 116.57 72.6197 114.781 72.6197 112.883C72.6197 111.936 72.6197 110.958 72.6197 109.965V106.93C72.5599 106.987 72.6994 106.844 72.6861 106.861H84.5448H84.6012V106.917C84.6012 110.316 84.578 113.145 84.5714 115.135C84.5714 116.129 84.5714 116.888 84.5714 117.421C84.5714 117.679 84.5714 117.878 84.5714 118.02C84.5714 118.083 84.5714 118.133 84.5714 118.173C84.5636 118.208 84.5489 118.242 84.5282 118.272Z" fill="#455A64"/>
</g>
</g>
</g>
</svg>
