<svg width="161" height="159" viewBox="0 0 161 159" fill="none" xmlns="http://www.w3.org/2000/svg">
<g id="Group 31">
<path id="Vector" d="M78.9741 65.5902H54.2344C52.4065 69.5892 48.3603 72.3754 43.6504 72.3754C37.2286 72.3754 32.0231 67.2057 32.0231 60.8288C32.0231 54.4513 37.2286 49.2816 43.6504 49.2816C48.3603 49.2816 52.4065 52.0678 54.2344 56.0668H73.4377L65.2952 42.0615H21.7651L0 79.5003L9.83761 96.4218H38.2563C39.0678 94.4018 41.0467 92.9698 43.3703 92.9698C44.0944 92.9697 44.8115 93.1113 45.4805 93.3865C46.1495 93.6617 46.7573 94.065 47.2694 94.5735C47.7814 95.082 48.1875 95.6856 48.4646 96.35C48.7416 97.0144 48.8842 97.7265 48.8841 98.4456C48.8847 99.7084 48.4457 100.933 47.6416 101.911C46.8375 102.889 45.7177 103.561 44.4718 103.813C43.2259 104.065 41.9305 103.882 40.8051 103.294C39.6797 102.707 38.7934 101.751 38.2964 100.588H12.2596L21.7651 116.939H65.2952L87.0602 79.5003L78.9741 65.5902ZM160.26 37.4382L138.495 0H118.97L104.812 24.3633C106.168 26.0709 106.427 28.4893 105.265 30.4881C104.903 31.111 104.422 31.6569 103.847 32.0948C103.273 32.5326 102.617 32.8538 101.918 33.04C101.218 33.2262 100.489 33.2737 99.771 33.1799C99.0531 33.0861 98.3609 32.8528 97.7338 32.4933C96.4673 31.7673 95.5431 30.5714 95.1644 29.1688C94.7856 27.7661 94.9834 26.2715 95.7141 25.0136C96.255 24.0832 97.0595 23.3313 98.0274 22.8515C98.9953 22.3717 100.084 22.1852 101.158 22.3152L114.126 0H94.9647L73.199 37.4382L94.9647 74.8771H111.653L123.81 53.5601C121.206 50.0097 120.758 45.1401 123.079 41.0701C126.244 35.5209 133.339 33.5699 138.927 36.7126C144.514 39.8553 146.479 46.9012 143.314 52.4505C140.993 56.5205 136.558 58.6445 132.154 58.253L122.673 74.8771H138.495L160.26 37.4382ZM150.93 137.884L160.42 121.562L138.655 84.1229H95.1245L87.0421 98.0256L99.4677 119.476C103.87 119.055 108.32 121.149 110.668 125.204C113.87 130.731 111.954 137.791 106.388 140.971C100.822 144.151 93.7139 142.248 90.5118 136.72C88.1631 132.665 88.5767 127.792 91.156 124.225L81.5001 107.558L73.3588 121.562L95.1245 159H138.655L148.511 142.045L134.34 117.788C132.173 118.105 129.933 117.123 128.767 115.127C128.058 113.872 127.875 112.391 128.257 111.003C128.639 109.615 129.556 108.432 130.809 107.71C132.062 106.988 133.551 106.785 134.954 107.145C136.357 107.504 137.561 108.397 138.306 109.631C138.848 110.561 139.104 111.628 139.041 112.7C138.977 113.773 138.598 114.803 137.949 115.663L150.93 137.884Z" fill="#FFA500"/>
<path id="Vector_2" d="M137.706 47.3511C137.706 47.9764 137.581 48.5957 137.34 49.1735C137.098 49.7512 136.744 50.2762 136.298 50.7184C135.852 51.1606 135.322 51.5114 134.739 51.7507C134.156 51.99 133.531 52.1131 132.899 52.113C131.949 52.113 131.02 51.8337 130.229 51.3105C129.439 50.7872 128.823 50.0435 128.459 49.1734C128.095 48.3032 128 47.3458 128.185 46.422C128.371 45.4983 128.829 44.6498 129.501 43.9839C130.173 43.3179 131.029 42.8644 131.962 42.6806C132.894 42.4969 133.86 42.5912 134.739 42.9516C135.617 43.312 136.367 43.9224 136.896 44.7055C137.424 45.4886 137.706 46.4092 137.706 47.3511ZM47.944 61.2809C47.9512 61.9108 47.8322 62.5359 47.5939 63.12C47.3555 63.7041 47.0026 64.2355 46.5555 64.6835C46.1084 65.1315 45.5761 65.4872 44.9893 65.7299C44.4025 65.9726 43.773 66.0976 43.1371 66.0975C42.5012 66.0975 41.8717 65.9725 41.2849 65.7297C40.6982 65.4869 40.1659 65.1311 39.7189 64.6831C39.2718 64.235 38.919 63.7036 38.6807 63.1195C38.4425 62.5353 38.3236 61.9102 38.3309 61.2802C38.3454 60.0266 38.8583 58.8293 39.7582 57.9479C40.6581 57.0666 41.8724 56.5723 43.1377 56.5724C44.4031 56.5725 45.6173 57.0669 46.5171 57.9484C47.4169 58.8298 47.9296 60.0273 47.944 61.2809ZM104.901 131.524C104.901 132.149 104.777 132.768 104.535 133.346C104.294 133.924 103.94 134.449 103.493 134.891C103.047 135.333 102.517 135.684 101.934 135.923C101.351 136.163 100.726 136.286 100.094 136.286C99.1437 136.286 98.2143 136.006 97.4238 135.483C96.6333 134.96 96.0172 134.216 95.6534 133.345C95.2896 132.475 95.1944 131.517 95.38 130.594C95.5655 129.67 96.0233 128.821 96.6957 128.155C97.368 127.489 98.2245 127.036 99.157 126.852C100.089 126.668 101.056 126.763 101.934 127.123C102.813 127.484 103.563 128.094 104.091 128.877C104.62 129.661 104.901 130.582 104.901 131.524Z" fill="#B3B2B2"/>
<path id="Vector_3" d="M132.419 38.3301C127.94 38.3301 124.295 41.9951 124.295 46.4996C124.295 48.627 125.131 50.5409 126.466 51.99L112.325 76.8879H93.3852L82.6213 58.4377H51.3991C50.4607 54.978 47.3506 52.4162 43.6156 52.4162C39.1358 52.4162 35.4907 56.0813 35.4907 60.5857C35.4907 65.0901 39.1358 68.7546 43.6156 68.7546C47.2836 68.7546 50.3508 66.2858 51.3507 62.9209H79.9563L89.4652 79.2324L78.9415 97.7674L94.4061 125.2C92.9308 126.677 92.0024 128.702 92.0024 130.955C92.0024 135.46 95.6474 139.125 100.127 139.125C104.607 139.125 108.252 135.46 108.252 130.955C108.252 126.451 104.607 122.788 100.127 122.788C99.5134 122.788 98.9232 122.874 98.3491 123.007L84.1543 97.7362L93.6222 81.4472H114.878L130.369 54.3651C131.027 54.5442 131.706 54.6684 132.419 54.6684C136.899 54.6684 140.544 51.004 140.544 46.4996C140.544 41.9951 136.899 38.3301 132.419 38.3301ZM132.419 53.3311C131.498 53.331 130.587 53.1415 129.741 52.7744L114.107 80.1117H92.8601L82.6201 97.725L97.7365 124.582C98.4832 124.298 99.2832 124.123 100.127 124.123C103.874 124.123 106.922 127.188 106.922 130.955C106.922 134.723 103.874 137.789 100.127 137.789C96.3798 137.789 93.3324 134.723 93.3324 130.955C93.3324 128.701 94.4365 126.714 96.1166 125.469L80.472 97.7712L91.0013 79.2231L80.719 61.5836L50.3099 61.5861C49.8239 64.8767 47.0223 67.4172 43.6156 67.4172C39.8688 67.4172 36.8208 64.3525 36.8208 60.5857C36.8208 56.8183 39.8688 53.7536 43.6156 53.7536C47.0875 53.7536 49.9257 56.3933 50.3291 59.7769L81.8592 59.7751L92.6224 78.2252H113.097L128.136 51.7585C126.616 50.5047 125.625 48.6263 125.625 46.4996C125.625 42.7322 128.672 39.6674 132.419 39.6674C136.166 39.6674 139.214 42.7322 139.214 46.4996C139.214 50.2664 136.166 53.3311 132.419 53.3311Z" fill="#A19317"/>
</g>
</svg>
